<mxfile host="app.diagrams.net" modified="2023-10-26T04:07:38.201Z" agent="Mozilla/5.0 (Macintosh; Intel Mac OS X 10_15_7) AppleWebKit/605.1.15 (KHTML, like Gecko) Version/16.3 Safari/605.1.15" etag="2-99S3aSZ32LAKnukW7v" version="22.0.8" type="github" pages="2">
  <diagram name="第 1 页" id="wgd9IT_2G_9R6sudnyW2">
    <mxGraphModel dx="591" dy="394" grid="1" gridSize="10" guides="1" tooltips="1" connect="1" arrows="1" fold="1" page="1" pageScale="1" pageWidth="827" pageHeight="1169" math="0" shadow="0">
      <root>
        <mxCell id="0" />
        <mxCell id="1" parent="0" />
        <mxCell id="gNJ-yViqhEWlv9rejB6D-75" value="" style="rounded=0;whiteSpace=wrap;html=1;fontSize=9;spacing=-1;" vertex="1" parent="1">
          <mxGeometry x="20" y="20" width="50" height="20" as="geometry" />
        </mxCell>
        <mxCell id="gNJ-yViqhEWlv9rejB6D-76" value="" style="rounded=0;whiteSpace=wrap;html=1;fontSize=9;spacing=-1;" vertex="1" parent="1">
          <mxGeometry x="70" y="20" width="20" height="20" as="geometry" />
        </mxCell>
        <mxCell id="gNJ-yViqhEWlv9rejB6D-77" value="0001" style="text;html=1;align=center;verticalAlign=middle;resizable=0;points=[];autosize=1;strokeColor=none;fillColor=none;fontSize=9;spacing=-1;" vertex="1" parent="1">
          <mxGeometry x="25" y="20" width="40" height="20" as="geometry" />
        </mxCell>
        <mxCell id="gNJ-yViqhEWlv9rejB6D-78" value="" style="rounded=0;whiteSpace=wrap;html=1;fontSize=9;spacing=-1;" vertex="1" parent="1">
          <mxGeometry x="120" y="20" width="40" height="20" as="geometry" />
        </mxCell>
        <mxCell id="gNJ-yViqhEWlv9rejB6D-79" value="f1" style="rounded=0;whiteSpace=wrap;html=1;fontSize=9;spacing=-1;" vertex="1" parent="1">
          <mxGeometry x="160" y="20" width="50" height="20" as="geometry" />
        </mxCell>
        <mxCell id="gNJ-yViqhEWlv9rejB6D-80" value="f2" style="rounded=0;whiteSpace=wrap;html=1;fontSize=9;spacing=-1;" vertex="1" parent="1">
          <mxGeometry x="210" y="20" width="50" height="20" as="geometry" />
        </mxCell>
        <mxCell id="gNJ-yViqhEWlv9rejB6D-81" value="f3" style="rounded=0;whiteSpace=wrap;html=1;fontSize=9;spacing=-1;" vertex="1" parent="1">
          <mxGeometry x="260" y="20" width="50" height="20" as="geometry" />
        </mxCell>
        <mxCell id="gNJ-yViqhEWlv9rejB6D-82" value="0001" style="text;html=1;align=center;verticalAlign=middle;resizable=0;points=[];autosize=1;strokeColor=none;fillColor=none;fontSize=9;spacing=-1;" vertex="1" parent="1">
          <mxGeometry x="120" y="20" width="40" height="20" as="geometry" />
        </mxCell>
        <mxCell id="gNJ-yViqhEWlv9rejB6D-83" value="" style="rounded=0;whiteSpace=wrap;html=1;fontSize=9;spacing=-1;" vertex="1" parent="1">
          <mxGeometry x="40" y="105" width="50" height="20" as="geometry" />
        </mxCell>
        <mxCell id="gNJ-yViqhEWlv9rejB6D-84" value="" style="rounded=0;whiteSpace=wrap;html=1;fontSize=9;spacing=-1;" vertex="1" parent="1">
          <mxGeometry x="90" y="105" width="20" height="20" as="geometry" />
        </mxCell>
        <mxCell id="gNJ-yViqhEWlv9rejB6D-85" value="0001" style="text;html=1;align=center;verticalAlign=middle;resizable=0;points=[];autosize=1;strokeColor=none;fillColor=none;fontSize=9;spacing=-1;" vertex="1" parent="1">
          <mxGeometry x="45" y="105" width="40" height="20" as="geometry" />
        </mxCell>
        <mxCell id="gNJ-yViqhEWlv9rejB6D-86" value="" style="rounded=0;whiteSpace=wrap;html=1;fontSize=9;spacing=-1;" vertex="1" parent="1">
          <mxGeometry x="165" y="105" width="40" height="20" as="geometry" />
        </mxCell>
        <mxCell id="gNJ-yViqhEWlv9rejB6D-87" value="f1" style="rounded=0;whiteSpace=wrap;html=1;fontSize=9;spacing=-1;" vertex="1" parent="1">
          <mxGeometry x="205" y="105" width="50" height="20" as="geometry" />
        </mxCell>
        <mxCell id="gNJ-yViqhEWlv9rejB6D-88" value="f2" style="rounded=0;whiteSpace=wrap;html=1;fontSize=9;spacing=-1;" vertex="1" parent="1">
          <mxGeometry x="255" y="105" width="50" height="20" as="geometry" />
        </mxCell>
        <mxCell id="gNJ-yViqhEWlv9rejB6D-89" value="f3" style="rounded=0;whiteSpace=wrap;html=1;fontSize=9;spacing=-1;" vertex="1" parent="1">
          <mxGeometry x="305" y="105" width="50" height="20" as="geometry" />
        </mxCell>
        <mxCell id="gNJ-yViqhEWlv9rejB6D-90" value="0001" style="text;html=1;align=center;verticalAlign=middle;resizable=0;points=[];autosize=1;strokeColor=none;fillColor=none;spacing=-1;fontSize=9;" vertex="1" parent="1">
          <mxGeometry x="165" y="105" width="40" height="20" as="geometry" />
        </mxCell>
        <mxCell id="gNJ-yViqhEWlv9rejB6D-91" value="" style="rounded=0;whiteSpace=wrap;html=1;fontSize=9;spacing=-1;" vertex="1" parent="1">
          <mxGeometry x="40" y="125" width="50" height="20" as="geometry" />
        </mxCell>
        <mxCell id="gNJ-yViqhEWlv9rejB6D-92" value="" style="rounded=0;whiteSpace=wrap;html=1;fontSize=9;spacing=-1;" vertex="1" parent="1">
          <mxGeometry x="90" y="125" width="20" height="20" as="geometry" />
        </mxCell>
        <mxCell id="gNJ-yViqhEWlv9rejB6D-93" value="0002" style="text;html=1;align=center;verticalAlign=middle;resizable=0;points=[];autosize=1;strokeColor=none;fillColor=none;fontSize=9;spacing=-1;" vertex="1" parent="1">
          <mxGeometry x="45" y="125" width="40" height="20" as="geometry" />
        </mxCell>
        <mxCell id="gNJ-yViqhEWlv9rejB6D-94" value="" style="rounded=0;whiteSpace=wrap;html=1;fontSize=9;spacing=-1;" vertex="1" parent="1">
          <mxGeometry x="40" y="145" width="50" height="20" as="geometry" />
        </mxCell>
        <mxCell id="gNJ-yViqhEWlv9rejB6D-95" value="" style="rounded=0;whiteSpace=wrap;html=1;fontSize=9;spacing=-1;" vertex="1" parent="1">
          <mxGeometry x="90" y="145" width="20" height="20" as="geometry" />
        </mxCell>
        <mxCell id="gNJ-yViqhEWlv9rejB6D-96" value="0003" style="text;html=1;align=center;verticalAlign=middle;resizable=0;points=[];autosize=1;strokeColor=none;fillColor=none;fontSize=9;spacing=-1;" vertex="1" parent="1">
          <mxGeometry x="45" y="145" width="40" height="20" as="geometry" />
        </mxCell>
        <mxCell id="gNJ-yViqhEWlv9rejB6D-97" value="" style="rounded=0;whiteSpace=wrap;html=1;fontSize=9;spacing=-1;" vertex="1" parent="1">
          <mxGeometry x="40" y="165" width="50" height="20" as="geometry" />
        </mxCell>
        <mxCell id="gNJ-yViqhEWlv9rejB6D-98" value="" style="rounded=0;whiteSpace=wrap;html=1;fontSize=9;spacing=-1;" vertex="1" parent="1">
          <mxGeometry x="90" y="165" width="20" height="20" as="geometry" />
        </mxCell>
        <mxCell id="gNJ-yViqhEWlv9rejB6D-99" value="0004" style="text;html=1;align=center;verticalAlign=middle;resizable=0;points=[];autosize=1;strokeColor=none;fillColor=none;fontSize=9;spacing=-1;" vertex="1" parent="1">
          <mxGeometry x="45" y="165" width="40" height="20" as="geometry" />
        </mxCell>
        <mxCell id="gNJ-yViqhEWlv9rejB6D-100" value="" style="rounded=0;whiteSpace=wrap;html=1;fontSize=9;spacing=-1;" vertex="1" parent="1">
          <mxGeometry x="40" y="185" width="50" height="20" as="geometry" />
        </mxCell>
        <mxCell id="gNJ-yViqhEWlv9rejB6D-101" value="" style="rounded=0;whiteSpace=wrap;html=1;fontSize=9;spacing=-1;" vertex="1" parent="1">
          <mxGeometry x="90" y="185" width="20" height="20" as="geometry" />
        </mxCell>
        <mxCell id="gNJ-yViqhEWlv9rejB6D-102" value="0005" style="text;html=1;align=center;verticalAlign=middle;resizable=0;points=[];autosize=1;strokeColor=none;fillColor=none;fontSize=9;spacing=-1;" vertex="1" parent="1">
          <mxGeometry x="45" y="185" width="40" height="20" as="geometry" />
        </mxCell>
        <mxCell id="gNJ-yViqhEWlv9rejB6D-103" value="" style="rounded=0;whiteSpace=wrap;html=1;fontSize=9;spacing=-1;" vertex="1" parent="1">
          <mxGeometry x="165" y="125" width="40" height="20" as="geometry" />
        </mxCell>
        <mxCell id="gNJ-yViqhEWlv9rejB6D-104" value="f1" style="rounded=0;whiteSpace=wrap;html=1;fontSize=9;spacing=-1;" vertex="1" parent="1">
          <mxGeometry x="205" y="125" width="50" height="20" as="geometry" />
        </mxCell>
        <mxCell id="gNJ-yViqhEWlv9rejB6D-105" value="f2" style="rounded=0;whiteSpace=wrap;html=1;fontSize=9;spacing=-1;" vertex="1" parent="1">
          <mxGeometry x="255" y="125" width="50" height="20" as="geometry" />
        </mxCell>
        <mxCell id="gNJ-yViqhEWlv9rejB6D-106" value="f3" style="rounded=0;whiteSpace=wrap;html=1;fontSize=9;spacing=-1;" vertex="1" parent="1">
          <mxGeometry x="305" y="125" width="50" height="20" as="geometry" />
        </mxCell>
        <mxCell id="gNJ-yViqhEWlv9rejB6D-107" value="0002" style="text;html=1;align=center;verticalAlign=middle;resizable=0;points=[];autosize=1;strokeColor=none;fillColor=none;fontSize=9;spacing=-1;" vertex="1" parent="1">
          <mxGeometry x="165" y="125" width="40" height="20" as="geometry" />
        </mxCell>
        <mxCell id="gNJ-yViqhEWlv9rejB6D-108" value="" style="rounded=0;whiteSpace=wrap;html=1;fontSize=9;spacing=-1;" vertex="1" parent="1">
          <mxGeometry x="165" y="145" width="40" height="20" as="geometry" />
        </mxCell>
        <mxCell id="gNJ-yViqhEWlv9rejB6D-109" value="f1" style="rounded=0;whiteSpace=wrap;html=1;fontSize=9;spacing=-1;" vertex="1" parent="1">
          <mxGeometry x="205" y="145" width="50" height="20" as="geometry" />
        </mxCell>
        <mxCell id="gNJ-yViqhEWlv9rejB6D-110" value="f2" style="rounded=0;whiteSpace=wrap;html=1;fontSize=9;spacing=-1;" vertex="1" parent="1">
          <mxGeometry x="255" y="145" width="50" height="20" as="geometry" />
        </mxCell>
        <mxCell id="gNJ-yViqhEWlv9rejB6D-111" value="f3" style="rounded=0;whiteSpace=wrap;html=1;fontSize=9;spacing=-1;" vertex="1" parent="1">
          <mxGeometry x="305" y="145" width="50" height="20" as="geometry" />
        </mxCell>
        <mxCell id="gNJ-yViqhEWlv9rejB6D-112" value="0003" style="text;html=1;align=center;verticalAlign=middle;resizable=0;points=[];autosize=1;strokeColor=none;fillColor=none;fontSize=9;spacing=-1;" vertex="1" parent="1">
          <mxGeometry x="165" y="145" width="40" height="20" as="geometry" />
        </mxCell>
        <mxCell id="gNJ-yViqhEWlv9rejB6D-113" value="" style="rounded=0;whiteSpace=wrap;html=1;fontSize=9;spacing=-1;" vertex="1" parent="1">
          <mxGeometry x="165" y="165" width="40" height="20" as="geometry" />
        </mxCell>
        <mxCell id="gNJ-yViqhEWlv9rejB6D-114" value="f1" style="rounded=0;whiteSpace=wrap;html=1;fontSize=9;spacing=-1;" vertex="1" parent="1">
          <mxGeometry x="205" y="165" width="50" height="20" as="geometry" />
        </mxCell>
        <mxCell id="gNJ-yViqhEWlv9rejB6D-115" value="f2" style="rounded=0;whiteSpace=wrap;html=1;fontSize=9;spacing=-1;" vertex="1" parent="1">
          <mxGeometry x="255" y="165" width="50" height="20" as="geometry" />
        </mxCell>
        <mxCell id="gNJ-yViqhEWlv9rejB6D-116" value="f3" style="rounded=0;whiteSpace=wrap;html=1;fontSize=9;spacing=-1;" vertex="1" parent="1">
          <mxGeometry x="305" y="165" width="50" height="20" as="geometry" />
        </mxCell>
        <mxCell id="gNJ-yViqhEWlv9rejB6D-117" value="0004" style="text;html=1;align=center;verticalAlign=middle;resizable=0;points=[];autosize=1;strokeColor=none;fillColor=none;fontSize=9;spacing=-1;" vertex="1" parent="1">
          <mxGeometry x="165" y="165" width="40" height="20" as="geometry" />
        </mxCell>
        <mxCell id="gNJ-yViqhEWlv9rejB6D-118" value="" style="rounded=0;whiteSpace=wrap;html=1;fontSize=9;spacing=-1;" vertex="1" parent="1">
          <mxGeometry x="165" y="185" width="40" height="20" as="geometry" />
        </mxCell>
        <mxCell id="gNJ-yViqhEWlv9rejB6D-119" value="f1" style="rounded=0;whiteSpace=wrap;html=1;fontSize=9;spacing=-1;" vertex="1" parent="1">
          <mxGeometry x="205" y="185" width="50" height="20" as="geometry" />
        </mxCell>
        <mxCell id="gNJ-yViqhEWlv9rejB6D-120" value="f2" style="rounded=0;whiteSpace=wrap;html=1;fontSize=9;spacing=-1;" vertex="1" parent="1">
          <mxGeometry x="255" y="185" width="50" height="20" as="geometry" />
        </mxCell>
        <mxCell id="gNJ-yViqhEWlv9rejB6D-121" value="f3" style="rounded=0;whiteSpace=wrap;html=1;fontSize=9;spacing=-1;" vertex="1" parent="1">
          <mxGeometry x="305" y="185" width="50" height="20" as="geometry" />
        </mxCell>
        <mxCell id="gNJ-yViqhEWlv9rejB6D-122" value="0005" style="text;html=1;align=center;verticalAlign=middle;resizable=0;points=[];autosize=1;strokeColor=none;fillColor=none;fontSize=9;spacing=-1;" vertex="1" parent="1">
          <mxGeometry x="165" y="185" width="40" height="20" as="geometry" />
        </mxCell>
        <mxCell id="gNJ-yViqhEWlv9rejB6D-126" value="" style="endArrow=classic;html=1;rounded=0;exitX=1;exitY=0.5;exitDx=0;exitDy=0;entryX=0.029;entryY=0.502;entryDx=0;entryDy=0;entryPerimeter=0;fontSize=9;spacing=-1;" edge="1" parent="1" source="gNJ-yViqhEWlv9rejB6D-84" target="gNJ-yViqhEWlv9rejB6D-90">
          <mxGeometry width="50" height="50" relative="1" as="geometry">
            <mxPoint x="160" y="150" as="sourcePoint" />
            <mxPoint x="210" y="100" as="targetPoint" />
          </mxGeometry>
        </mxCell>
        <mxCell id="gNJ-yViqhEWlv9rejB6D-128" value="" style="endArrow=classic;html=1;rounded=0;exitX=1;exitY=0.5;exitDx=0;exitDy=0;entryX=0.005;entryY=0.598;entryDx=0;entryDy=0;entryPerimeter=0;fontSize=9;spacing=-1;" edge="1" parent="1" source="gNJ-yViqhEWlv9rejB6D-92" target="gNJ-yViqhEWlv9rejB6D-107">
          <mxGeometry width="50" height="50" relative="1" as="geometry">
            <mxPoint x="165" y="280.24" as="sourcePoint" />
            <mxPoint x="220" y="280" as="targetPoint" />
          </mxGeometry>
        </mxCell>
        <mxCell id="gNJ-yViqhEWlv9rejB6D-130" value="" style="endArrow=classic;html=1;rounded=0;exitX=1;exitY=0.5;exitDx=0;exitDy=0;entryX=0.017;entryY=0.598;entryDx=0;entryDy=0;entryPerimeter=0;" edge="1" parent="1" source="gNJ-yViqhEWlv9rejB6D-95" target="gNJ-yViqhEWlv9rejB6D-112">
          <mxGeometry width="50" height="50" relative="1" as="geometry">
            <mxPoint x="160" y="160" as="sourcePoint" />
            <mxPoint x="210" y="110" as="targetPoint" />
          </mxGeometry>
        </mxCell>
        <mxCell id="gNJ-yViqhEWlv9rejB6D-131" value="" style="endArrow=classic;html=1;rounded=0;exitX=1;exitY=0.5;exitDx=0;exitDy=0;entryX=-0.007;entryY=0.455;entryDx=0;entryDy=0;entryPerimeter=0;" edge="1" parent="1" source="gNJ-yViqhEWlv9rejB6D-98" target="gNJ-yViqhEWlv9rejB6D-117">
          <mxGeometry width="50" height="50" relative="1" as="geometry">
            <mxPoint x="160" y="160" as="sourcePoint" />
            <mxPoint x="210" y="110" as="targetPoint" />
          </mxGeometry>
        </mxCell>
        <mxCell id="gNJ-yViqhEWlv9rejB6D-132" value="" style="endArrow=classic;html=1;rounded=0;exitX=1;exitY=0.5;exitDx=0;exitDy=0;entryX=-0.031;entryY=0.479;entryDx=0;entryDy=0;entryPerimeter=0;" edge="1" parent="1" source="gNJ-yViqhEWlv9rejB6D-101" target="gNJ-yViqhEWlv9rejB6D-122">
          <mxGeometry width="50" height="50" relative="1" as="geometry">
            <mxPoint x="160" y="160" as="sourcePoint" />
            <mxPoint x="210" y="110" as="targetPoint" />
          </mxGeometry>
        </mxCell>
        <mxCell id="gNJ-yViqhEWlv9rejB6D-133" value="稠密索引" style="text;html=1;align=center;verticalAlign=middle;resizable=0;points=[];autosize=1;strokeColor=none;fillColor=none;" vertex="1" parent="1">
          <mxGeometry x="120" y="210" width="70" height="30" as="geometry" />
        </mxCell>
        <mxCell id="gNJ-yViqhEWlv9rejB6D-134" value="" style="rounded=0;whiteSpace=wrap;html=1;fontSize=9;spacing=-1;" vertex="1" parent="1">
          <mxGeometry x="40" y="260" width="50" height="20" as="geometry" />
        </mxCell>
        <mxCell id="gNJ-yViqhEWlv9rejB6D-135" value="" style="rounded=0;whiteSpace=wrap;html=1;fontSize=9;spacing=-1;" vertex="1" parent="1">
          <mxGeometry x="90" y="260" width="20" height="20" as="geometry" />
        </mxCell>
        <mxCell id="gNJ-yViqhEWlv9rejB6D-136" value="0001" style="text;html=1;align=center;verticalAlign=middle;resizable=0;points=[];autosize=1;strokeColor=none;fillColor=none;fontSize=9;spacing=-1;" vertex="1" parent="1">
          <mxGeometry x="45" y="260" width="40" height="20" as="geometry" />
        </mxCell>
        <mxCell id="gNJ-yViqhEWlv9rejB6D-137" value="" style="rounded=0;whiteSpace=wrap;html=1;fontSize=9;spacing=-1;" vertex="1" parent="1">
          <mxGeometry x="165" y="260" width="40" height="20" as="geometry" />
        </mxCell>
        <mxCell id="gNJ-yViqhEWlv9rejB6D-138" value="f1" style="rounded=0;whiteSpace=wrap;html=1;fontSize=9;spacing=-1;" vertex="1" parent="1">
          <mxGeometry x="205" y="260" width="50" height="20" as="geometry" />
        </mxCell>
        <mxCell id="gNJ-yViqhEWlv9rejB6D-139" value="f2" style="rounded=0;whiteSpace=wrap;html=1;fontSize=9;spacing=-1;" vertex="1" parent="1">
          <mxGeometry x="255" y="260" width="50" height="20" as="geometry" />
        </mxCell>
        <mxCell id="gNJ-yViqhEWlv9rejB6D-140" value="f3" style="rounded=0;whiteSpace=wrap;html=1;fontSize=9;spacing=-1;" vertex="1" parent="1">
          <mxGeometry x="305" y="260" width="50" height="20" as="geometry" />
        </mxCell>
        <mxCell id="gNJ-yViqhEWlv9rejB6D-141" value="0001" style="text;html=1;align=center;verticalAlign=middle;resizable=0;points=[];autosize=1;strokeColor=none;fillColor=none;spacing=-1;fontSize=9;" vertex="1" parent="1">
          <mxGeometry x="165" y="260" width="40" height="20" as="geometry" />
        </mxCell>
        <mxCell id="gNJ-yViqhEWlv9rejB6D-142" value="" style="rounded=0;whiteSpace=wrap;html=1;fontSize=9;spacing=-1;" vertex="1" parent="1">
          <mxGeometry x="40" y="280" width="50" height="20" as="geometry" />
        </mxCell>
        <mxCell id="gNJ-yViqhEWlv9rejB6D-143" value="" style="rounded=0;whiteSpace=wrap;html=1;fontSize=9;spacing=-1;" vertex="1" parent="1">
          <mxGeometry x="90" y="280" width="20" height="20" as="geometry" />
        </mxCell>
        <mxCell id="gNJ-yViqhEWlv9rejB6D-144" value="0004" style="text;html=1;align=center;verticalAlign=middle;resizable=0;points=[];autosize=1;strokeColor=none;fillColor=none;fontSize=9;spacing=-1;" vertex="1" parent="1">
          <mxGeometry x="45" y="280" width="40" height="20" as="geometry" />
        </mxCell>
        <mxCell id="gNJ-yViqhEWlv9rejB6D-145" value="" style="rounded=0;whiteSpace=wrap;html=1;fontSize=9;spacing=-1;" vertex="1" parent="1">
          <mxGeometry x="40" y="300" width="50" height="20" as="geometry" />
        </mxCell>
        <mxCell id="gNJ-yViqhEWlv9rejB6D-146" value="" style="rounded=0;whiteSpace=wrap;html=1;fontSize=9;spacing=-1;" vertex="1" parent="1">
          <mxGeometry x="90" y="300" width="20" height="20" as="geometry" />
        </mxCell>
        <mxCell id="gNJ-yViqhEWlv9rejB6D-147" value="0007" style="text;html=1;align=center;verticalAlign=middle;resizable=0;points=[];autosize=1;strokeColor=none;fillColor=none;fontSize=9;spacing=-1;" vertex="1" parent="1">
          <mxGeometry x="45" y="300" width="40" height="20" as="geometry" />
        </mxCell>
        <mxCell id="gNJ-yViqhEWlv9rejB6D-154" value="" style="rounded=0;whiteSpace=wrap;html=1;fontSize=9;spacing=-1;" vertex="1" parent="1">
          <mxGeometry x="165" y="280" width="40" height="20" as="geometry" />
        </mxCell>
        <mxCell id="gNJ-yViqhEWlv9rejB6D-155" value="f1" style="rounded=0;whiteSpace=wrap;html=1;fontSize=9;spacing=-1;" vertex="1" parent="1">
          <mxGeometry x="205" y="280" width="50" height="20" as="geometry" />
        </mxCell>
        <mxCell id="gNJ-yViqhEWlv9rejB6D-156" value="f2" style="rounded=0;whiteSpace=wrap;html=1;fontSize=9;spacing=-1;" vertex="1" parent="1">
          <mxGeometry x="255" y="280" width="50" height="20" as="geometry" />
        </mxCell>
        <mxCell id="gNJ-yViqhEWlv9rejB6D-157" value="f3" style="rounded=0;whiteSpace=wrap;html=1;fontSize=9;spacing=-1;" vertex="1" parent="1">
          <mxGeometry x="305" y="280" width="50" height="20" as="geometry" />
        </mxCell>
        <mxCell id="gNJ-yViqhEWlv9rejB6D-158" value="0002" style="text;html=1;align=center;verticalAlign=middle;resizable=0;points=[];autosize=1;strokeColor=none;fillColor=none;fontSize=9;spacing=-1;" vertex="1" parent="1">
          <mxGeometry x="165" y="280" width="40" height="20" as="geometry" />
        </mxCell>
        <mxCell id="gNJ-yViqhEWlv9rejB6D-159" value="" style="rounded=0;whiteSpace=wrap;html=1;fontSize=9;spacing=-1;" vertex="1" parent="1">
          <mxGeometry x="165" y="300" width="40" height="20" as="geometry" />
        </mxCell>
        <mxCell id="gNJ-yViqhEWlv9rejB6D-160" value="f1" style="rounded=0;whiteSpace=wrap;html=1;fontSize=9;spacing=-1;" vertex="1" parent="1">
          <mxGeometry x="205" y="300" width="50" height="20" as="geometry" />
        </mxCell>
        <mxCell id="gNJ-yViqhEWlv9rejB6D-161" value="f2" style="rounded=0;whiteSpace=wrap;html=1;fontSize=9;spacing=-1;" vertex="1" parent="1">
          <mxGeometry x="255" y="300" width="50" height="20" as="geometry" />
        </mxCell>
        <mxCell id="gNJ-yViqhEWlv9rejB6D-162" value="f3" style="rounded=0;whiteSpace=wrap;html=1;fontSize=9;spacing=-1;" vertex="1" parent="1">
          <mxGeometry x="305" y="300" width="50" height="20" as="geometry" />
        </mxCell>
        <mxCell id="gNJ-yViqhEWlv9rejB6D-163" value="0003" style="text;html=1;align=center;verticalAlign=middle;resizable=0;points=[];autosize=1;strokeColor=none;fillColor=none;fontSize=9;spacing=-1;" vertex="1" parent="1">
          <mxGeometry x="165" y="300" width="40" height="20" as="geometry" />
        </mxCell>
        <mxCell id="gNJ-yViqhEWlv9rejB6D-164" value="" style="rounded=0;whiteSpace=wrap;html=1;fontSize=9;spacing=-1;" vertex="1" parent="1">
          <mxGeometry x="165" y="320" width="40" height="20" as="geometry" />
        </mxCell>
        <mxCell id="gNJ-yViqhEWlv9rejB6D-165" value="f1" style="rounded=0;whiteSpace=wrap;html=1;fontSize=9;spacing=-1;" vertex="1" parent="1">
          <mxGeometry x="205" y="320" width="50" height="20" as="geometry" />
        </mxCell>
        <mxCell id="gNJ-yViqhEWlv9rejB6D-166" value="f2" style="rounded=0;whiteSpace=wrap;html=1;fontSize=9;spacing=-1;" vertex="1" parent="1">
          <mxGeometry x="255" y="320" width="50" height="20" as="geometry" />
        </mxCell>
        <mxCell id="gNJ-yViqhEWlv9rejB6D-167" value="f3" style="rounded=0;whiteSpace=wrap;html=1;fontSize=9;spacing=-1;" vertex="1" parent="1">
          <mxGeometry x="305" y="320" width="50" height="20" as="geometry" />
        </mxCell>
        <mxCell id="gNJ-yViqhEWlv9rejB6D-168" value="0004" style="text;html=1;align=center;verticalAlign=middle;resizable=0;points=[];autosize=1;strokeColor=none;fillColor=none;fontSize=9;spacing=-1;" vertex="1" parent="1">
          <mxGeometry x="165" y="320" width="40" height="20" as="geometry" />
        </mxCell>
        <mxCell id="gNJ-yViqhEWlv9rejB6D-169" value="" style="rounded=0;whiteSpace=wrap;html=1;fontSize=9;spacing=-1;" vertex="1" parent="1">
          <mxGeometry x="165" y="340" width="40" height="20" as="geometry" />
        </mxCell>
        <mxCell id="gNJ-yViqhEWlv9rejB6D-170" value="f1" style="rounded=0;whiteSpace=wrap;html=1;fontSize=9;spacing=-1;" vertex="1" parent="1">
          <mxGeometry x="205" y="340" width="50" height="20" as="geometry" />
        </mxCell>
        <mxCell id="gNJ-yViqhEWlv9rejB6D-171" value="f2" style="rounded=0;whiteSpace=wrap;html=1;fontSize=9;spacing=-1;" vertex="1" parent="1">
          <mxGeometry x="255" y="340" width="50" height="20" as="geometry" />
        </mxCell>
        <mxCell id="gNJ-yViqhEWlv9rejB6D-172" value="f3" style="rounded=0;whiteSpace=wrap;html=1;fontSize=9;spacing=-1;" vertex="1" parent="1">
          <mxGeometry x="305" y="340" width="50" height="20" as="geometry" />
        </mxCell>
        <mxCell id="gNJ-yViqhEWlv9rejB6D-173" value="0005" style="text;html=1;align=center;verticalAlign=middle;resizable=0;points=[];autosize=1;strokeColor=none;fillColor=none;fontSize=9;spacing=-1;" vertex="1" parent="1">
          <mxGeometry x="165" y="340" width="40" height="20" as="geometry" />
        </mxCell>
        <mxCell id="gNJ-yViqhEWlv9rejB6D-174" value="" style="endArrow=classic;html=1;rounded=0;exitX=1;exitY=0.5;exitDx=0;exitDy=0;entryX=0.029;entryY=0.502;entryDx=0;entryDy=0;entryPerimeter=0;fontSize=9;spacing=-1;" edge="1" parent="1" source="gNJ-yViqhEWlv9rejB6D-135" target="gNJ-yViqhEWlv9rejB6D-141">
          <mxGeometry width="50" height="50" relative="1" as="geometry">
            <mxPoint x="160" y="305" as="sourcePoint" />
            <mxPoint x="210" y="255" as="targetPoint" />
          </mxGeometry>
        </mxCell>
        <mxCell id="gNJ-yViqhEWlv9rejB6D-175" value="" style="endArrow=classic;html=1;rounded=0;exitX=1;exitY=0.5;exitDx=0;exitDy=0;entryX=-0.031;entryY=0.467;entryDx=0;entryDy=0;entryPerimeter=0;fontSize=9;spacing=-1;" edge="1" parent="1" source="gNJ-yViqhEWlv9rejB6D-143" target="gNJ-yViqhEWlv9rejB6D-168">
          <mxGeometry width="50" height="50" relative="1" as="geometry">
            <mxPoint x="165" y="435.24" as="sourcePoint" />
            <mxPoint x="220" y="435" as="targetPoint" />
          </mxGeometry>
        </mxCell>
        <mxCell id="gNJ-yViqhEWlv9rejB6D-176" value="" style="endArrow=classic;html=1;rounded=0;exitX=1;exitY=0.5;exitDx=0;exitDy=0;entryX=0.017;entryY=0.598;entryDx=0;entryDy=0;entryPerimeter=0;" edge="1" parent="1" source="gNJ-yViqhEWlv9rejB6D-146">
          <mxGeometry width="50" height="50" relative="1" as="geometry">
            <mxPoint x="109.32" y="389.02" as="sourcePoint" />
            <mxPoint x="165.00000000000006" y="390.98" as="targetPoint" />
          </mxGeometry>
        </mxCell>
        <mxCell id="gNJ-yViqhEWlv9rejB6D-204" value="" style="rounded=0;whiteSpace=wrap;html=1;fontSize=9;spacing=-1;" vertex="1" parent="1">
          <mxGeometry x="165" y="360" width="40" height="20" as="geometry" />
        </mxCell>
        <mxCell id="gNJ-yViqhEWlv9rejB6D-205" value="f1" style="rounded=0;whiteSpace=wrap;html=1;fontSize=9;spacing=-1;" vertex="1" parent="1">
          <mxGeometry x="205" y="360" width="50" height="20" as="geometry" />
        </mxCell>
        <mxCell id="gNJ-yViqhEWlv9rejB6D-206" value="f2" style="rounded=0;whiteSpace=wrap;html=1;fontSize=9;spacing=-1;" vertex="1" parent="1">
          <mxGeometry x="255" y="360" width="50" height="20" as="geometry" />
        </mxCell>
        <mxCell id="gNJ-yViqhEWlv9rejB6D-207" value="f3" style="rounded=0;whiteSpace=wrap;html=1;fontSize=9;spacing=-1;" vertex="1" parent="1">
          <mxGeometry x="305" y="360" width="50" height="20" as="geometry" />
        </mxCell>
        <mxCell id="gNJ-yViqhEWlv9rejB6D-208" value="0006" style="text;html=1;align=center;verticalAlign=middle;resizable=0;points=[];autosize=1;strokeColor=none;fillColor=none;spacing=-1;fontSize=9;" vertex="1" parent="1">
          <mxGeometry x="165" y="360" width="40" height="20" as="geometry" />
        </mxCell>
        <mxCell id="gNJ-yViqhEWlv9rejB6D-209" value="" style="rounded=0;whiteSpace=wrap;html=1;fontSize=9;spacing=-1;" vertex="1" parent="1">
          <mxGeometry x="165" y="380" width="40" height="20" as="geometry" />
        </mxCell>
        <mxCell id="gNJ-yViqhEWlv9rejB6D-210" value="f1" style="rounded=0;whiteSpace=wrap;html=1;fontSize=9;spacing=-1;" vertex="1" parent="1">
          <mxGeometry x="205" y="380" width="50" height="20" as="geometry" />
        </mxCell>
        <mxCell id="gNJ-yViqhEWlv9rejB6D-211" value="f2" style="rounded=0;whiteSpace=wrap;html=1;fontSize=9;spacing=-1;" vertex="1" parent="1">
          <mxGeometry x="255" y="380" width="50" height="20" as="geometry" />
        </mxCell>
        <mxCell id="gNJ-yViqhEWlv9rejB6D-212" value="f3" style="rounded=0;whiteSpace=wrap;html=1;fontSize=9;spacing=-1;" vertex="1" parent="1">
          <mxGeometry x="305" y="380" width="50" height="20" as="geometry" />
        </mxCell>
        <mxCell id="gNJ-yViqhEWlv9rejB6D-213" value="0007" style="text;html=1;align=center;verticalAlign=middle;resizable=0;points=[];autosize=1;strokeColor=none;fillColor=none;fontSize=9;spacing=-1;" vertex="1" parent="1">
          <mxGeometry x="165" y="380" width="40" height="20" as="geometry" />
        </mxCell>
        <mxCell id="gNJ-yViqhEWlv9rejB6D-214" value="" style="rounded=0;whiteSpace=wrap;html=1;fontSize=9;spacing=-1;" vertex="1" parent="1">
          <mxGeometry x="165" y="400" width="40" height="20" as="geometry" />
        </mxCell>
        <mxCell id="gNJ-yViqhEWlv9rejB6D-215" value="f1" style="rounded=0;whiteSpace=wrap;html=1;fontSize=9;spacing=-1;" vertex="1" parent="1">
          <mxGeometry x="205" y="400" width="50" height="20" as="geometry" />
        </mxCell>
        <mxCell id="gNJ-yViqhEWlv9rejB6D-216" value="f2" style="rounded=0;whiteSpace=wrap;html=1;fontSize=9;spacing=-1;" vertex="1" parent="1">
          <mxGeometry x="255" y="400" width="50" height="20" as="geometry" />
        </mxCell>
        <mxCell id="gNJ-yViqhEWlv9rejB6D-217" value="f3" style="rounded=0;whiteSpace=wrap;html=1;fontSize=9;spacing=-1;" vertex="1" parent="1">
          <mxGeometry x="305" y="400" width="50" height="20" as="geometry" />
        </mxCell>
        <mxCell id="gNJ-yViqhEWlv9rejB6D-218" value="0008" style="text;html=1;align=center;verticalAlign=middle;resizable=0;points=[];autosize=1;strokeColor=none;fillColor=none;fontSize=9;spacing=-1;" vertex="1" parent="1">
          <mxGeometry x="165" y="400" width="40" height="20" as="geometry" />
        </mxCell>
        <mxCell id="gNJ-yViqhEWlv9rejB6D-219" value="" style="rounded=0;whiteSpace=wrap;html=1;fontSize=9;spacing=-1;" vertex="1" parent="1">
          <mxGeometry x="165" y="420" width="40" height="20" as="geometry" />
        </mxCell>
        <mxCell id="gNJ-yViqhEWlv9rejB6D-220" value="f1" style="rounded=0;whiteSpace=wrap;html=1;fontSize=9;spacing=-1;" vertex="1" parent="1">
          <mxGeometry x="205" y="420" width="50" height="20" as="geometry" />
        </mxCell>
        <mxCell id="gNJ-yViqhEWlv9rejB6D-221" value="f2" style="rounded=0;whiteSpace=wrap;html=1;fontSize=9;spacing=-1;" vertex="1" parent="1">
          <mxGeometry x="255" y="420" width="50" height="20" as="geometry" />
        </mxCell>
        <mxCell id="gNJ-yViqhEWlv9rejB6D-222" value="f3" style="rounded=0;whiteSpace=wrap;html=1;fontSize=9;spacing=-1;" vertex="1" parent="1">
          <mxGeometry x="305" y="420" width="50" height="20" as="geometry" />
        </mxCell>
        <mxCell id="gNJ-yViqhEWlv9rejB6D-223" value="0009" style="text;html=1;align=center;verticalAlign=middle;resizable=0;points=[];autosize=1;strokeColor=none;fillColor=none;fontSize=9;spacing=-1;" vertex="1" parent="1">
          <mxGeometry x="165" y="420" width="40" height="20" as="geometry" />
        </mxCell>
        <mxCell id="gNJ-yViqhEWlv9rejB6D-224" value="" style="rounded=0;whiteSpace=wrap;html=1;fontSize=9;spacing=-1;" vertex="1" parent="1">
          <mxGeometry x="165" y="440" width="40" height="20" as="geometry" />
        </mxCell>
        <mxCell id="gNJ-yViqhEWlv9rejB6D-225" value="f1" style="rounded=0;whiteSpace=wrap;html=1;fontSize=9;spacing=-1;" vertex="1" parent="1">
          <mxGeometry x="205" y="440" width="50" height="20" as="geometry" />
        </mxCell>
        <mxCell id="gNJ-yViqhEWlv9rejB6D-226" value="f2" style="rounded=0;whiteSpace=wrap;html=1;fontSize=9;spacing=-1;" vertex="1" parent="1">
          <mxGeometry x="255" y="440" width="50" height="20" as="geometry" />
        </mxCell>
        <mxCell id="gNJ-yViqhEWlv9rejB6D-227" value="f3" style="rounded=0;whiteSpace=wrap;html=1;fontSize=9;spacing=-1;" vertex="1" parent="1">
          <mxGeometry x="305" y="440" width="50" height="20" as="geometry" />
        </mxCell>
        <mxCell id="gNJ-yViqhEWlv9rejB6D-228" value="0010" style="text;html=1;align=center;verticalAlign=middle;resizable=0;points=[];autosize=1;strokeColor=none;fillColor=none;fontSize=9;spacing=-1;" vertex="1" parent="1">
          <mxGeometry x="165" y="440" width="40" height="20" as="geometry" />
        </mxCell>
        <mxCell id="gNJ-yViqhEWlv9rejB6D-229" value="稀疏索引" style="text;html=1;align=center;verticalAlign=middle;resizable=0;points=[];autosize=1;strokeColor=none;fillColor=none;" vertex="1" parent="1">
          <mxGeometry x="140" y="470" width="70" height="30" as="geometry" />
        </mxCell>
        <mxCell id="gNJ-yViqhEWlv9rejB6D-230" value="必须按照顺序存储！（聚集索引）" style="shape=note;whiteSpace=wrap;html=1;backgroundOutline=1;darkOpacity=0.05;fontSize=9;" vertex="1" parent="1">
          <mxGeometry x="45" y="380" width="60" height="80" as="geometry" />
        </mxCell>
      </root>
    </mxGraphModel>
  </diagram>
  <diagram id="Vjnd4AFqOFwpaFPBWrbT" name="第 2 页">
    <mxGraphModel dx="1242" dy="827" grid="1" gridSize="10" guides="1" tooltips="1" connect="1" arrows="1" fold="1" page="1" pageScale="1" pageWidth="827" pageHeight="1169" math="0" shadow="0">
      <root>
        <mxCell id="0" />
        <mxCell id="1" parent="0" />
      </root>
    </mxGraphModel>
  </diagram>
</mxfile>
